<?xml version="1.0" encoding="UTF-8" standalone="no"?>
<!-- Created with Inkscape (http://www.inkscape.org/) -->

<svg
   xmlns:dc="http://purl.org/dc/elements/1.1/"
   xmlns:cc="http://creativecommons.org/ns#"
   xmlns:rdf="http://www.w3.org/1999/02/22-rdf-syntax-ns#"
   xmlns:svg="http://www.w3.org/2000/svg"
   xmlns="http://www.w3.org/2000/svg"
   xmlns:sodipodi="http://sodipodi.sourceforge.net/DTD/sodipodi-0.dtd"
   xmlns:inkscape="http://www.inkscape.org/namespaces/inkscape"
   version="1.0"
   width="719.54865"
   height="671.61658"
   id="svg2"
   sodipodi:docname="Bluete-Schema.svg"
   viewBox="0 0 1439.0973 1343.2332"
   inkscape:version="0.92.4 (unknown)">
  <metadata
     id="metadata29">
    <rdf:RDF>
      <cc:Work
         rdf:about="">
        <dc:format>image/svg+xml</dc:format>
        <dc:type
           rdf:resource="http://purl.org/dc/dcmitype/StillImage" />
        <dc:title></dc:title>
      </cc:Work>
    </rdf:RDF>
  </metadata>
  <sodipodi:namedview
     pagecolor="#ffffff"
     bordercolor="#666666"
     borderopacity="1"
     objecttolerance="10"
     gridtolerance="10"
     guidetolerance="10"
     inkscape:pageopacity="0"
     inkscape:pageshadow="2"
     inkscape:window-width="708"
     inkscape:window-height="480"
     id="namedview27"
     showgrid="false"
     scale-x="2"
     fit-margin-top="20"
     fit-margin-left="20"
     fit-margin-right="20"
     fit-margin-bottom="20"
     inkscape:zoom="0.15945946"
     inkscape:cx="729.79837"
     inkscape:cy="5.2499823"
     inkscape:window-x="0"
     inkscape:window-y="0"
     inkscape:window-maximized="0"
     inkscape:current-layer="svg2" />
  <defs
     id="defs5" />
  <g
     style="display:inline"
     id="layer3"
     transform="translate(-20.403262,-147.26678)">
    <path
       d="M 516.30138,878.61572 C 265.29691,773.79171 113.71272,464.01089 77.923575,349.06994 50.917588,262.33712 56.239831,206.50887 92.539367,191.70678 135.73765,174.09154 214.09413,214.055 303.59132,342.45175 c 69.42793,99.60448 73.34301,234.79086 224.97815,518.08431 z"
       style="fill:#f7ee5d;fill-opacity:1;fill-rule:evenodd;stroke:#000000;stroke-width:1px;stroke-linecap:butt;stroke-linejoin:miter;stroke-opacity:1"
       id="path1909"
       inkscape:connector-curvature="0" />
    <path
       d="M 514.86111,890 C 539.12564,774.60317 494.81464,607.32032 493.67063,512.6918 492.06672,379.67828 539.54948,336.79883 560,330 l -0.7672,37.06349 c -25.47026,22.09854 -34.41963,42.70504 -41.50132,120.05291 -10.50254,114.71117 54.48752,203.81846 44.01936,326.95443 0.0319,2.1346 -9.10063,10.12545 -10.87313,11.35433 22.34883,-14.16626 36.39147,-72.38319 28.28542,-156.83327 -6.60216,-68.58312 -11.19189,-126.30368 33.4956,-150.97284 l 5.10582,20.21164 c -21.08459,23.16773 -24.70446,108.51954 -5.31746,179.96693 18.84071,69.43413 3.46923,153.84881 -59.54365,174.6164 z"
       style="display:inline;opacity:1;fill:#ecac09;fill-opacity:1;fill-rule:nonzero;stroke:#000000;stroke-width:1px;stroke-linecap:butt;stroke-linejoin:miter;stroke-opacity:1"
       id="path1911"
       inkscape:connector-curvature="0" />
    <path
       d="M 510,900 C 499.63544,880.24501 422.70527,879.92019 355.57319,879.15285 251.08898,877.96251 246.83509,833.88684 231.38428,797.07642 259.84351,832.49099 285.15493,840.66023 335,840 c 54.66759,-0.71911 70.35996,-1.94741 109.65393,-3.61572 C 484.47554,834.69357 520.92054,874.53973 520,875 l 10,20 z"
       style="fill:#79c010;fill-opacity:1;fill-rule:evenodd;stroke:#000000;stroke-width:1px;stroke-linecap:butt;stroke-linejoin:miter;stroke-opacity:1"
       id="path1907"
       inkscape:connector-curvature="0" />
    <path
       d="m 700,1200 c 0,0 -30.72874,-27.5866 -33.375,-82.75 -2.6609,-55.4684 49.19875,-114.3409 48.375,-147.25 -2.85265,-113.9643 7.13886,-178.45301 2,-276.5 -5.74707,-110.2106 -9.53756,-190.3805 2.0625,-292.5 0,0 -22,-12.75947 -22,-33.375 0,-22 24.4375,-37.625 44.4375,-37.625 20,0 42.68553,15.55808 43.5,37.5 0.86754,23.37162 -23.19076,34.16617 -23,34.5 -7.10736,78.78987 -12.82467,169.46417 -2,298 9.68913,114.92701 -5.83922,159.52673 -1.25,260.25 2.46614,54.1263 45.41645,93.8994 47.25,144.75 2.16954,60.1689 -26,95 -26,95 z"
       style="fill:#f7cf00;fill-opacity:1;fill-rule:evenodd;stroke:#000000;stroke-width:1px;stroke-linecap:butt;stroke-linejoin:miter;stroke-opacity:1"
       id="path2942"
       inkscape:connector-curvature="0" />
    <path
       d="m 963.6025,878.61572 c 251.0044,-104.82401 402.5886,-414.60483 438.3778,-529.54578 27.006,-86.73282 21.6837,-142.56107 -14.6158,-157.36316 -43.1983,-17.61524 -121.5548,22.34822 -211.052,150.74497 -69.4279,99.60448 -73.343,234.79086 -224.97811,518.08431 z"
       style="fill:#f7ee5d;fill-opacity:1;fill-rule:evenodd;stroke:#000000;stroke-width:1px;stroke-linecap:butt;stroke-linejoin:miter;stroke-opacity:1"
       id="path2929"
       inkscape:connector-curvature="0" />
    <path
       d="M 965.0427,890 C 940.77822,774.60317 985.0892,607.32032 986.2332,512.6918 987.8371,379.67828 940.35438,336.79883 919.90386,330 l 0.7672,37.06349 c 25.47026,22.09854 34.41963,42.70504 41.50134,120.05291 10.5025,114.71117 -54.48754,203.81846 -44.01938,326.95443 -0.0319,2.1346 9.10063,10.12545 10.87313,11.35433 -22.34883,-14.16626 -36.39147,-72.38319 -28.28542,-156.83327 6.60216,-68.58312 11.19189,-126.30368 -33.4956,-150.97284 l -5.10582,20.21164 c 21.08459,23.16773 24.70446,108.51954 5.31746,179.96693 -18.84071,69.43413 -3.46923,153.84881 59.54365,174.6164 z"
       style="display:inline;opacity:1;fill:#ecac09;fill-opacity:1;fill-rule:nonzero;stroke:#000000;stroke-width:1px;stroke-linecap:butt;stroke-linejoin:miter;stroke-opacity:1"
       id="path2931"
       inkscape:connector-curvature="0" />
    <path
       d="m 969.9039,900 c 10.3645,-19.75499 87.2947,-20.07981 154.4268,-20.84715 104.4842,-1.19034 108.7381,-45.26601 124.1889,-82.07643 -28.4593,35.41457 -53.7707,43.58381 -103.6157,42.92358 -54.6676,-0.71911 -70.36,-1.94741 -109.654,-3.61572 C 995.4283,834.69357 958.98332,874.53973 959.90386,875 l -10,20 z"
       style="fill:#79c010;fill-opacity:1;fill-rule:evenodd;stroke:#000000;stroke-width:1px;stroke-linecap:butt;stroke-linejoin:miter;stroke-opacity:1"
       id="path2933"
       inkscape:connector-curvature="0" />
    <path
       d="M 534.65625,874.8125 C 513.90451,874.85467 492.20322,887.42751 492,910 c -1.84764,205.2265 146.06881,327.093 193,345 12.12315,4.6257 12.85846,135 10,195 h 89.90625 c -2.85847,-60 -2.12315,-190.3743 10,-195 46.93118,-17.907 194.8476,-139.7735 193,-345 -0.39417,-43.77695 -81.66607,-49.98224 -80,0 4.42664,132.8 -73.83876,247.5631 -128,250 -26.83842,-0.4762 -53.07153,0.8998 -79.90625,0 -54.16124,-2.4369 -132.42665,-117.2 -128,-250 0.807,-24.21015 -17.84969,-35.22712 -37.34375,-35.1875 z"
       style="fill:#79aa00;fill-opacity:1;fill-rule:evenodd;stroke:#000000;stroke-width:1px;stroke-linecap:butt;stroke-linejoin:miter;stroke-opacity:1"
       id="path1903"
       inkscape:connector-curvature="0" />
    <path
       d="m 673.43916,507.03705 a 40.132275,46.984127 0 1 1 -80.26455,0 40.132275,46.984127 0 1 1 80.26455,0 z"
       transform="matrix(0.878049,0,0,0.96875,79.19022,15.35549)"
       style="color:#000000;display:inline;overflow:visible;visibility:visible;opacity:1;fill:#c43a00;fill-opacity:1;fill-rule:nonzero;stroke:#000000;stroke-width:1.60000002;stroke-linecap:round;stroke-linejoin:round;stroke-miterlimit:12.19999981;stroke-dasharray:none;stroke-dashoffset:0;stroke-opacity:1;marker:none;marker-start:none;marker-mid:none;marker-end:none"
       id="path1913"
       inkscape:connector-curvature="0" />
    <path
       d="m 605.41007,336.71957 a 35.727515,49.920639 0 1 1 -71.45503,0 35.727515,49.920639 0 1 1 71.45503,0 z"
       transform="matrix(1.034247,0,0,1.098039,-7.241172,-34.75775)"
       style="color:#000000;display:inline;overflow:visible;visibility:visible;opacity:1;fill:#c43a00;fill-opacity:1;fill-rule:nonzero;stroke:#000000;stroke-width:1.60000002;stroke-linecap:round;stroke-linejoin:round;stroke-miterlimit:12.19999981;stroke-dasharray:none;stroke-dashoffset:0;stroke-opacity:1;marker:none;marker-start:none;marker-mid:none;marker-end:none"
       id="path1915"
       inkscape:connector-curvature="0" />
    <path
       d="m 673.43916,507.03705 a 40.132275,46.984127 0 1 1 -80.26455,0 40.132275,46.984127 0 1 1 80.26455,0 z"
       transform="matrix(-0.878049,0,0,0.96875,1400.714,15.35549)"
       style="color:#000000;display:inline;overflow:visible;visibility:visible;opacity:1;fill:#c43a00;fill-opacity:1;fill-rule:nonzero;stroke:#000000;stroke-width:1.60000002;stroke-linecap:round;stroke-linejoin:round;stroke-miterlimit:12.19999981;stroke-dasharray:none;stroke-dashoffset:0;stroke-opacity:1;marker:none;marker-start:none;marker-mid:none;marker-end:none"
       id="path2937"
       inkscape:connector-curvature="0" />
    <path
       d="m 605.41007,336.71957 a 35.727515,49.920639 0 1 1 -71.45503,0 35.727515,49.920639 0 1 1 71.45503,0 z"
       transform="matrix(-1.034247,0,0,1.098039,1487.145,-34.75775)"
       style="color:#000000;display:inline;overflow:visible;visibility:visible;opacity:1;fill:#c43a00;fill-opacity:1;fill-rule:nonzero;stroke:#000000;stroke-width:1.60000002;stroke-linecap:round;stroke-linejoin:round;stroke-miterlimit:12.19999981;stroke-dasharray:none;stroke-dashoffset:0;stroke-opacity:1;marker:none;marker-start:none;marker-mid:none;marker-end:none"
       id="path2939"
       inkscape:connector-curvature="0" />
    <text
       x="930.55249"
       y="1304.6376"
       style="font-style:normal;font-weight:normal;font-size:144px;font-family:'Bitstream Vera Sans';fill:#000000;fill-opacity:1;stroke:none;stroke-width:1px;stroke-linecap:butt;stroke-linejoin:miter;stroke-opacity:1"
       id="text3833"
       xml:space="preserve"><tspan
         x="930.55249"
         y="1304.6376"
         id="tspan3835">1</tspan></text>
    <text
       x="1202.0814"
       y="1018.9664"
       style="font-style:normal;font-weight:normal;font-size:144px;font-family:'Bitstream Vera Sans';fill:#000000;fill-opacity:1;stroke:none;stroke-width:1px;stroke-linecap:butt;stroke-linejoin:miter;stroke-opacity:1"
       id="text3837"
       xml:space="preserve"><tspan
         x="1202.0814"
         y="1018.9664"
         id="tspan3839">2</tspan></text>
    <text
       x="1301.0765"
       y="707.83936"
       style="font-style:normal;font-weight:normal;font-size:144px;font-family:'Bitstream Vera Sans';fill:#000000;fill-opacity:1;stroke:none;stroke-width:1px;stroke-linecap:butt;stroke-linejoin:miter;stroke-opacity:1"
       id="text3841"
       xml:space="preserve"><tspan
         x="1301.0765"
         y="707.83936"
         id="tspan3843">3</tspan></text>
    <text
       x="953.17993"
       y="342.97229"
       style="font-style:normal;font-weight:normal;font-size:144px;font-family:'Bitstream Vera Sans';fill:#000000;fill-opacity:1;stroke:none;stroke-width:1px;stroke-linecap:butt;stroke-linejoin:miter;stroke-opacity:1"
       id="text3845"
       xml:space="preserve"><tspan
         x="953.17993"
         y="342.97229"
         id="tspan3847">4</tspan></text>
    <text
       x="704.27832"
       y="294.88904"
       style="font-style:normal;font-weight:normal;font-size:144px;font-family:'Bitstream Vera Sans';fill:#000000;fill-opacity:1;stroke:none;stroke-width:1px;stroke-linecap:butt;stroke-linejoin:miter;stroke-opacity:1"
       id="text3849"
       xml:space="preserve"><tspan
         x="704.27832"
         y="294.88904"
         id="tspan3851">5</tspan></text>
  </g>
</svg>
